# Blender 5.0.0
# www.blender.org
mtllib dock_box.mtl
o Cube
v -0.397282 -0.400000 0.397282
v 0.300000 -0.014042 0.481263
v -0.397282 -0.317825 0.500000
v 0.300000 0.289975 0.481263
v -0.500000 -0.317825 0.397282
v -0.397282 0.317825 0.500000
v -0.397282 0.400000 0.397282
v 0.200000 -0.014042 0.481263
v -0.500000 0.317825 0.397282
v 0.200000 0.289975 0.481263
v -0.397282 -0.400000 -0.397282
v -0.500000 -0.317825 -0.397282
v 0.300000 -0.286474 0.481263
v -0.437664 -0.090815 -0.437664
v -0.397282 -0.317825 -0.500000
v 0.300000 -0.115925 0.481263
v -0.397282 0.400000 -0.397282
v -0.385327 -0.090815 -0.490000
v -0.397282 0.317825 -0.500000
v 0.200000 -0.286474 0.481263
v 0.490000 -0.090815 -0.385327
v 0.200000 -0.115925 0.481263
v 0.437664 -0.090815 0.437664
v -0.500000 0.317825 -0.397282
v 0.050000 -0.014042 0.481263
v 0.397282 -0.400000 0.397282
v 0.050000 0.289975 0.481263
v 0.490000 -0.090815 0.385327
v 0.500000 -0.317825 0.397282
v 0.385327 -0.090815 -0.490000
v -0.050000 -0.014042 0.481263
v 0.397282 -0.317825 0.500000
v -0.050000 0.289975 0.481263
v -0.490000 -0.090815 -0.385327
v 0.397282 0.400000 0.397282
v -0.490000 -0.090815 0.385327
v 0.050000 -0.286474 0.481263
v 0.397282 0.317825 0.500000
v 0.050000 -0.115925 0.481263
v 0.385327 -0.090815 0.490000
v 0.500000 0.317825 0.397282
v -0.385327 -0.090815 0.490000
v -0.050000 -0.286474 0.481263
v 0.397282 -0.400000 -0.397282
v -0.050000 -0.115925 0.481263
v -0.490000 -0.030815 0.385327
v 0.397282 -0.317825 -0.500000
v -0.490000 -0.030815 -0.385327
v -0.200000 -0.014042 0.481263
v 0.385327 -0.030815 -0.490000
v 0.500000 -0.317825 -0.397282
v -0.200000 0.289975 0.481263
v 0.437664 -0.030815 -0.437664
v 0.397282 0.400000 -0.397282
v -0.437664 -0.030815 0.437664
v -0.300000 -0.014042 0.481263
v 0.500000 0.317825 -0.397282
v -0.300000 0.289975 0.481263
v -0.385327 -0.030815 -0.490000
v 0.397282 0.317825 -0.500000
v -0.385327 -0.030815 0.490000
v -0.200000 -0.286474 0.481263
v 0.490000 -0.030815 -0.385327
v -0.200000 -0.115925 0.481263
v 0.490000 -0.030815 0.385327
v 0.385327 -0.030815 0.490000
v -0.397282 -0.090815 0.500000
v -0.300000 -0.286474 0.481263
v -0.300000 -0.115925 0.481263
v -0.397282 -0.030815 0.500000
v -0.500000 -0.090815 0.397282
v -0.500000 -0.030815 0.397282
v -0.300000 -0.014042 -0.481263
v -0.448641 -0.030815 0.448641
v -0.300000 0.289975 -0.481263
v -0.448641 -0.090815 -0.448641
v -0.397282 -0.090815 -0.500000
v -0.397282 -0.030815 -0.500000
v -0.500000 -0.090815 -0.397282
v -0.200000 -0.014042 -0.481263
v -0.200000 0.289975 -0.481263
v -0.500000 -0.030815 -0.397282
v 0.448641 -0.030815 -0.448641
v 0.500000 -0.090815 -0.397282
v -0.300000 -0.286474 -0.481263
v 0.500000 -0.030815 -0.397282
v 0.397282 -0.090815 -0.500000
v -0.300000 -0.115925 -0.481263
v 0.397282 -0.030815 -0.500000
v 0.397282 -0.090815 0.500000
v 0.397282 -0.030815 0.500000
v -0.200000 -0.286474 -0.481263
v -0.200000 -0.115925 -0.481263
v 0.448641 -0.090815 0.448641
v 0.500000 -0.090815 0.397282
v 0.500000 -0.030815 0.397282
v -0.050000 -0.014042 -0.481263
v -0.050000 0.289975 -0.481263
v 0.050000 -0.014042 -0.481263
v 0.050000 0.289975 -0.481263
v -0.050000 -0.286474 -0.481263
v -0.050000 -0.115925 -0.481263
v 0.050000 -0.286474 -0.481263
v 0.050000 -0.115925 -0.481263
v 0.200000 -0.014042 -0.481263
v 0.200000 0.289975 -0.481263
v 0.300000 -0.014042 -0.481263
v 0.300000 0.289975 -0.481263
v 0.200000 -0.286474 -0.481263
v 0.200000 -0.115925 -0.481263
v 0.300000 -0.286474 -0.481263
v 0.300000 -0.115925 -0.481263
v -0.481263 -0.014042 0.300000
v -0.481263 0.289975 0.300000
v -0.481263 -0.014042 0.200000
v -0.481263 0.289975 0.200000
v -0.481263 -0.286474 0.300000
v -0.481263 -0.115925 0.300000
v -0.481263 -0.286474 0.200000
v -0.481263 -0.115925 0.200000
v -0.481263 -0.014042 0.050000
v -0.481263 0.289975 0.050000
v -0.481263 -0.014042 -0.050000
v -0.481263 0.289975 -0.050000
v -0.481263 -0.286474 0.050000
v -0.481263 -0.115925 0.050000
v -0.481263 -0.286474 -0.050000
v -0.481263 -0.115925 -0.050000
v -0.481263 -0.014042 -0.200000
v -0.481263 0.289975 -0.200000
v -0.481263 -0.014042 -0.300000
v -0.481263 0.289975 -0.300000
v -0.481263 -0.286474 -0.200000
v -0.481263 -0.115925 -0.200000
v -0.481263 -0.286474 -0.300000
v -0.481263 -0.115925 -0.300000
v 0.481263 -0.014042 -0.300000
v 0.481263 0.289975 -0.300000
v 0.481263 -0.014042 -0.200000
v 0.481263 0.289975 -0.200000
v 0.481263 -0.286474 -0.300000
v 0.481263 -0.115925 -0.300000
v 0.481263 -0.286474 -0.200000
v 0.481263 -0.115925 -0.200000
v 0.481263 -0.014042 -0.050000
v 0.481263 0.289975 -0.050000
v 0.481263 -0.014042 0.050000
v 0.481263 0.289975 0.050000
v 0.481263 -0.286474 -0.050000
v 0.481263 -0.115925 -0.050000
v 0.481263 -0.286474 0.050000
v 0.481263 -0.115925 0.050000
v 0.481263 -0.014042 0.200000
v 0.481263 0.289975 0.200000
v 0.481263 -0.014042 0.300000
v 0.481263 0.289975 0.300000
v 0.481263 -0.286474 0.200000
v 0.481263 -0.115925 0.200000
v 0.481263 -0.286474 0.300000
v 0.481263 -0.115925 0.300000
v -0.500000 0.289975 0.300000
v -0.500000 0.289975 0.050000
v -0.500000 0.289975 0.200000
v -0.500000 0.289975 -0.200000
v -0.500000 0.289975 -0.050000
v -0.500000 0.289975 -0.300000
v -0.500000 -0.014042 0.300000
v -0.500000 -0.014042 0.200000
v -0.500000 -0.014042 0.050000
v -0.500000 -0.014042 -0.050000
v -0.500000 -0.014042 -0.200000
v -0.500000 -0.014042 -0.300000
v -0.500000 -0.286474 0.300000
v -0.500000 -0.286474 0.200000
v -0.500000 -0.286474 0.050000
v -0.500000 -0.286474 -0.050000
v -0.500000 -0.286474 -0.200000
v -0.500000 -0.115925 0.300000
v -0.500000 -0.115925 0.050000
v -0.500000 -0.115925 0.200000
v -0.500000 -0.115925 -0.200000
v -0.500000 -0.286474 -0.300000
v -0.500000 -0.115925 -0.300000
v -0.500000 -0.115925 -0.050000
v -0.300000 0.289975 0.500000
v -0.050000 0.289975 0.500000
v -0.200000 0.289975 0.500000
v 0.050000 0.289975 0.500000
v 0.200000 0.289975 0.500000
v 0.300000 0.289975 0.500000
v -0.300000 -0.014042 0.500000
v -0.050000 -0.014042 0.500000
v -0.200000 -0.014042 0.500000
v 0.050000 -0.014042 0.500000
v 0.200000 -0.014042 0.500000
v 0.300000 -0.014042 0.500000
v -0.300000 -0.286474 0.500000
v -0.050000 -0.286474 0.500000
v -0.200000 -0.286474 0.500000
v 0.050000 -0.286474 0.500000
v 0.200000 -0.286474 0.500000
v -0.300000 -0.115925 0.500000
v -0.050000 -0.115925 0.500000
v -0.200000 -0.115925 0.500000
v 0.200000 -0.115925 0.500000
v 0.050000 -0.115925 0.500000
v 0.300000 -0.286474 0.500000
v 0.300000 -0.115925 0.500000
v -0.300000 0.289975 -0.500000
v -0.200000 0.289975 -0.500000
v 0.050000 0.289975 -0.500000
v -0.050000 0.289975 -0.500000
v 0.200000 0.289975 -0.500000
v 0.300000 0.289975 -0.500000
v -0.200000 -0.014042 -0.500000
v -0.300000 -0.014042 -0.500000
v 0.050000 -0.014042 -0.500000
v -0.050000 -0.014042 -0.500000
v 0.300000 -0.014042 -0.500000
v 0.200000 -0.014042 -0.500000
v -0.300000 -0.286474 -0.500000
v -0.200000 -0.286474 -0.500000
v -0.050000 -0.286474 -0.500000
v 0.050000 -0.286474 -0.500000
v 0.200000 -0.286474 -0.500000
v -0.300000 -0.115925 -0.500000
v -0.050000 -0.115925 -0.500000
v -0.200000 -0.115925 -0.500000
v 0.200000 -0.115925 -0.500000
v 0.300000 -0.286474 -0.500000
v 0.300000 -0.115925 -0.500000
v 0.050000 -0.115925 -0.500000
v 0.500000 0.289975 0.300000
v 0.500000 0.289975 0.050000
v 0.500000 0.289975 0.200000
v 0.500000 0.289975 -0.050000
v 0.500000 0.289975 -0.200000
v 0.500000 0.289975 -0.300000
v 0.500000 -0.014042 0.300000
v 0.500000 -0.014042 0.050000
v 0.500000 -0.014042 0.200000
v 0.500000 -0.014042 -0.050000
v 0.500000 -0.014042 -0.200000
v 0.500000 -0.014042 -0.300000
v 0.500000 -0.286474 0.300000
v 0.500000 -0.286474 0.050000
v 0.500000 -0.286474 0.200000
v 0.500000 -0.286474 -0.050000
v 0.500000 -0.286474 -0.200000
v 0.500000 -0.115925 0.300000
v 0.500000 -0.115925 0.050000
v 0.500000 -0.115925 0.200000
v 0.500000 -0.115925 -0.200000
v 0.500000 -0.115925 -0.050000
v 0.500000 -0.286474 -0.300000
v 0.500000 -0.115925 -0.300000
vn -0.5298 -0.6623 0.5298
vn -0.5298 0.6623 0.5298
vn -0.5298 -0.6623 -0.5298
vn -0.5298 0.6623 -0.5298
vn 0.5298 -0.6623 0.5298
vn 0.5298 0.6623 0.5298
vn 0.5298 -0.6623 -0.5298
vn 0.5298 0.6623 -0.5298
vn -0.6247 -0.7809 -0.0000
vn -0.7071 -0.0000 0.7071
vn -0.6247 0.7809 -0.0000
vn -0.7071 -0.0000 -0.7071
vn -0.0000 -0.7809 -0.6247
vn -0.0000 0.7809 -0.6247
vn 0.7071 -0.0000 -0.7071
vn 0.6247 -0.7809 -0.0000
vn 0.6247 0.7809 -0.0000
vn 0.7071 -0.0000 0.7071
vn -0.0000 -0.7809 0.6247
vn -0.0000 0.7809 0.6247
vn -0.0000 -1.0000 -0.0000
vn -1.0000 -0.0000 -0.0000
vn -0.0000 -0.0000 1.0000
vn -0.0000 1.0000 -0.0000
vn -0.0000 -0.0000 -1.0000
vn 1.0000 -0.0000 -0.0000
vt 0.150680 0.724320
vt 0.150680 0.750000
vt 0.125000 0.724320
vt 0.599320 0.000000
vt 0.625000 0.025680
vt 0.599320 0.025680
vt 0.150680 0.525680
vt 0.125000 0.525680
vt 0.150680 0.500000
vt 0.625000 0.241440
vt 0.599320 0.269260
vt 0.599320 0.224320
vt 0.349320 0.724320
vt 0.394260 0.724320
vt 0.375000 0.762840
vt 0.637840 0.750000
vt 0.599320 0.775680
vt 0.599320 0.730740
vt 0.349320 0.525680
vt 0.375000 0.487160
vt 0.394260 0.525680
vt 0.637840 0.500000
vt 0.599320 0.519260
vt 0.599320 0.474320
vt 0.490370 0.012840
vt 0.490370 0.000000
vt 0.490370 0.025680
vt 0.471620 0.025680
vt 0.400680 0.025680
vt 0.400680 0.000000
vt 0.471620 0.000000
vt 0.471620 0.273387
vt 0.400680 0.275680
vt 0.400680 0.224320
vt 0.471620 0.224320
vt 0.471620 0.248854
vt 0.490370 0.272781
vt 0.490370 0.224320
vt 0.455112 0.482575
vt 0.467493 0.523387
vt 0.476286 0.481363
vt 0.486849 0.522781
vt 0.481567 0.502072
vt 0.461302 0.747019
vt 0.455112 0.767425
vt 0.467493 0.726613
vt 0.486849 0.727219
vt 0.476286 0.768637
vt 0.625000 0.974320
vt 0.599320 0.974320
vt 0.495612 0.200000
vt 0.590617 0.200000
vt 0.495612 0.050000
vt 0.490370 0.025680
vt 0.590617 0.050000
vt 0.495612 0.075000
vt 0.495612 0.112500
vt 0.495612 0.137500
vt 0.590617 0.137500
vt 0.590617 0.112500
vt 0.590617 0.075000
vt 0.590617 0.175000
vt 0.495612 0.175000
vt 0.410477 0.050000
vt 0.463774 0.050000
vt 0.410477 0.075000
vt 0.463774 0.075000
vt 0.463774 0.112500
vt 0.410477 0.112500
vt 0.410477 0.200000
vt 0.410477 0.137500
vt 0.463774 0.137500
vt 0.463774 0.200000
vt 0.463774 0.175000
vt 0.410477 0.175000
vt 0.490370 0.974320
vt 0.494049 0.949219
vt 0.590366 0.949874
vt 0.476286 0.768637
vt 0.483768 0.794078
vt 0.485483 0.819935
vt 0.589848 0.824615
vt 0.589743 0.799563
vt 0.590261 0.924822
vt 0.590107 0.887245
vt 0.590002 0.862193
vt 0.488053 0.858720
vt 0.489764 0.884576
vt 0.492334 0.923361
vt 0.471620 0.974320
vt 0.400680 0.974320
vt 0.448459 0.792343
vt 0.388983 0.789253
vt 0.392082 0.815803
vt 0.450639 0.818433
vt 0.453918 0.857572
vt 0.396725 0.855624
vt 0.399816 0.882170
vt 0.404459 0.921991
vt 0.407558 0.948540
vt 0.461565 0.948896
vt 0.459385 0.922806
vt 0.456106 0.883666
vt 0.849320 0.525680
vt 0.849320 0.724320
vt 0.589744 0.449714
vt 0.483768 0.455527
vt 0.490370 0.272781
vt 0.590366 0.294710
vt 0.494049 0.298109
vt 0.492334 0.324345
vt 0.590261 0.320544
vt 0.589848 0.423880
vt 0.590002 0.385129
vt 0.590107 0.359295
vt 0.489764 0.363700
vt 0.488053 0.389936
vt 0.485483 0.429290
vt 0.407558 0.301199
vt 0.461565 0.299299
vt 0.392082 0.434108
vt 0.396725 0.394235
vt 0.453918 0.391539
vt 0.450639 0.431070
vt 0.388983 0.460691
vt 0.404459 0.327782
vt 0.459385 0.325652
vt 0.448459 0.457423
vt 0.456106 0.365184
vt 0.399816 0.367655
vt 0.492260 0.702277
vt 0.590336 0.704692
vt 0.590336 0.571871
vt 0.590336 0.611718
vt 0.492260 0.612120
vt 0.492260 0.573481
vt 0.486849 0.522781
vt 0.492260 0.547722
vt 0.492260 0.637880
vt 0.590336 0.638282
vt 0.590336 0.545308
vt 0.590336 0.678129
vt 0.492260 0.676519
vt 0.467493 0.726613
vt 0.404374 0.700204
vt 0.459393 0.701571
vt 0.404374 0.549796
vt 0.459393 0.548429
vt 0.459393 0.676046
vt 0.404374 0.675138
vt 0.404374 0.574862
vt 0.404374 0.612465
vt 0.404374 0.637535
vt 0.459393 0.637761
vt 0.459393 0.612239
vt 0.459393 0.573954
vt 0.148036 0.523036
vt 0.150531 0.525531
vt 0.162426 0.513636
vt 0.337574 0.513636
vt 0.361364 0.537426
vt 0.361364 0.712574
vt 0.349469 0.724469
vt 0.351964 0.726964
vt 0.363636 0.715291
vt 0.363636 0.534709
vt 0.340291 0.511364
vt 0.159709 0.511364
vt 0.340291 0.738636
vt 0.351964 0.726964
vt 0.337574 0.736364
vt 0.162426 0.736364
vt 0.138636 0.712574
vt 0.138636 0.537426
vt 0.148036 0.523036
vt 0.136364 0.534709
vt 0.136364 0.715291
vt 0.159709 0.738636
vt 0.659709 0.511364
vt 0.648036 0.523036
vt 0.650531 0.525531
vt 0.662426 0.513636
vt 0.837574 0.513636
vt 0.861364 0.537426
vt 0.861364 0.712574
vt 0.849469 0.724469
vt 0.851964 0.726964
vt 0.863636 0.715291
vt 0.863636 0.534709
vt 0.840291 0.511364
vt 0.840291 0.738636
vt 0.851964 0.726964
vt 0.837574 0.736364
vt 0.662426 0.736364
vt 0.638636 0.712574
vt 0.638636 0.537426
vt 0.648036 0.523036
vt 0.636364 0.534709
vt 0.636364 0.715291
vt 0.659709 0.738636
vt 0.593750 0.013351
vt 0.593750 0.026702
vt 0.406250 0.026702
vt 0.406250 0.000000
vt 0.593750 0.000000
vt 0.593750 0.223298
vt 0.593750 0.276702
vt 0.406250 0.276702
vt 0.406250 0.250000
vt 0.406250 0.223298
vt 0.597088 0.504450
vt 0.593750 0.526702
vt 0.406250 0.526702
vt 0.399574 0.482199
vt 0.600426 0.482199
vt 0.593750 0.723298
vt 0.600426 0.767802
vt 0.399574 0.767801
vt 0.402912 0.745550
vt 0.406250 0.723298
vt 0.593750 0.026702
vt 0.600426 0.767801
vt 0.593750 0.973298
vt 0.406250 0.973298
vt 0.593750 0.276702
vt 0.399574 0.482199
vt 0.593750 0.526702
vt 0.625000 0.000000
vt 0.375000 0.000000
vt 0.375000 0.114815
vt 0.625000 0.114815
vt 0.375000 0.635185
vt 0.375000 0.750000
vt 0.625000 0.750000
vt 0.625000 0.635185
vt 0.375000 1.000000
vt 0.625000 1.000000
vt 0.125000 0.635185
vt 0.125000 0.750000
vt 0.375000 0.635185
vt 0.625000 0.635185
vt 0.875000 0.750000
vt 0.875000 0.635185
vt 0.625000 0.114814
vt 0.375000 0.114814
vt 0.625000 0.635185
vt 0.375000 0.635185
vt 0.125000 0.635186
vt 0.375000 0.635185
vt 0.875000 0.635186
vt 0.625000 0.635185
vt 0.625000 0.114815
vt 0.375000 0.114815
vt 0.375000 0.635184
vt 0.625000 0.635184
vt 0.125000 0.635185
vt 0.875000 0.635185
vt 0.375000 0.114815
vt 0.625000 0.114815
vt 0.625000 0.635185
vt 0.375000 0.635185
vt 0.375000 0.635185
vt 0.125000 0.635185
vt 0.875000 0.635185
vt 0.625000 0.635185
vt 0.375000 0.114815
vt 0.625000 0.114815
vt 0.375000 0.635185
vt 0.625000 0.635185
vt 0.625000 0.635185
vt 0.375000 0.635185
vt 0.625000 0.114815
vt 0.375000 0.114815
vt 0.125000 0.635185
vt 0.875000 0.635185
s 0
usemtl Box
f 1/1/1 3/2/1 5/3/1
f 6/4/2 7/5/2 9/6/2
f 11/7/3 12/8/3 15/9/3
f 17/10/4 19/11/4 24/12/4
f 26/13/5 29/14/5 32/15/5
f 35/16/6 38/17/6 41/18/6
f 44/19/7 47/20/7 51/21/7
f 54/22/8 57/23/8 60/24/8
f 11/7/9 1/1/9 5/3/9 12/8/9
f 74/25/10 70/26/10 6/4/10 9/6/10 72/27/10
f 71/28/10 5/29/10 3/30/10 67/31/10
f 7/5/11 17/10/11 24/12/11 9/6/11
f 77/32/12 15/33/12 12/34/12 79/35/12 76/36/12
f 24/12/12 19/11/12 78/37/12 82/38/12
f 44/19/13 11/7/13 15/9/13 47/20/13
f 17/10/14 54/22/14 60/24/14 19/11/14
f 51/21/15 47/20/15 87/39/15 84/40/15
f 89/41/15 60/24/15 57/23/15 86/42/15 83/43/15
f 26/13/16 44/19/16 51/21/16 29/14/16
f 54/22/17 35/16/17 41/18/17 57/23/17
f 94/44/18 90/45/18 32/15/18 29/14/18 95/46/18
f 96/47/18 41/18/18 38/17/18 91/48/18
f 1/1/19 26/13/19 32/15/19 3/2/19
f 35/16/20 7/49/20 6/50/20 38/17/20
f 11/7/21 44/19/21 26/13/21 1/1/21
f 24/12/22 82/38/22 172/51/22 166/52/22
f 167/53/22 72/54/22 9/6/22 161/55/22
f 82/38/22 72/54/22 167/53/22 168/56/22 169/57/22 170/58/22 165/59/22 162/60/22 163/61/22 161/55/22 9/6/22 24/12/22 166/52/22 164/62/22 171/63/22 172/51/22
f 163/61/22 162/60/22 169/57/22 168/56/22
f 173/64/22 5/29/22 71/28/22 178/65/22
f 174/66/22 180/67/22 179/68/22 175/69/22
f 182/70/22 12/34/22 5/29/22 173/64/22 174/66/22 175/69/22 176/71/22 184/72/22 179/68/22 180/67/22 178/65/22 71/28/22 79/35/22 183/73/22 181/74/22 177/75/22
f 79/35/22 12/34/22 182/70/22 183/73/22
f 6/50/23 70/76/23 191/77/23 185/78/23
f 191/77/23 70/76/23 91/79/23 196/80/23 195/81/23 189/82/23 190/83/23 38/17/23 6/50/23 185/78/23 187/84/23 186/85/23 188/86/23 194/87/23 192/88/23 193/89/23
f 196/80/23 91/79/23 38/17/23 190/83/23
f 186/85/23 187/84/23 193/89/23 192/88/23
f 67/90/23 3/91/23 32/15/23 90/45/23 208/92/23 207/93/23 201/94/23 205/95/23 206/96/23 200/97/23 198/98/23 199/99/23 197/100/23 202/101/23
f 208/92/23 90/45/23 67/90/23 202/101/23 204/102/23 199/99/23 198/98/23 203/103/23 206/96/23 205/95/23
f 54/22/24 17/104/24 7/105/24 35/16/24
f 214/106/25 60/24/25 89/41/25 219/107/25
f 78/108/25 19/11/25 209/109/25 216/110/25
f 219/107/25 89/41/25 78/108/25 216/110/25 215/111/25 210/112/25 209/109/25 19/11/25 60/24/25 214/106/25 213/113/25 211/114/25 212/115/25 218/116/25 217/117/25 220/118/25
f 220/118/25 217/117/25 211/114/25 213/113/25
f 221/119/25 15/33/25 77/32/25 226/120/25
f 225/121/25 224/122/25 232/123/25 229/124/25
f 230/125/25 47/20/25 15/33/25 221/119/25 222/126/25 228/127/25 226/120/25 77/32/25 87/39/25 231/128/25 229/124/25 232/123/25 227/129/25 223/130/25 224/122/25 225/121/25
f 87/39/25 47/20/25 230/125/25 231/128/25
f 41/18/26 96/47/26 239/131/26 233/132/26
f 237/133/26 236/134/26 242/135/26 243/136/26
f 239/131/26 96/47/26 86/137/26 244/138/26 243/136/26 242/135/26 240/139/26 234/140/26 236/134/26 237/133/26 238/141/26 57/23/26 41/18/26 233/132/26 235/142/26 241/143/26
f 244/138/26 86/137/26 57/23/26 238/141/26
f 95/144/26 29/14/26 245/145/26 250/146/26
f 255/147/26 51/21/26 84/40/26 256/148/26
f 256/148/26 84/40/26 95/144/26 250/146/26 252/149/26 247/150/26 245/145/26 29/14/26 51/21/26 255/147/26 249/151/26 248/152/26 246/153/26 251/154/26 254/155/26 253/156/26
f 253/156/26 254/155/26 248/152/26 249/151/26
f 76/157/24 14/158/24 18/159/24 30/160/24 21/161/24 28/162/24 23/163/24 94/164/24 95/165/24 84/166/24 87/167/24 77/168/24
f 90/169/24 94/170/24 23/163/24 40/171/24 42/172/24 36/173/24 34/174/24 14/158/24 76/175/24 79/176/24 71/177/24 67/178/24
f 89/179/21 83/180/21 53/181/21 50/182/21 59/183/21 48/184/21 46/185/21 55/186/21 74/187/21 72/188/21 82/189/21 78/190/21
f 70/191/21 74/192/21 55/186/21 61/193/21 66/194/21 65/195/21 63/196/21 53/181/21 83/197/21 86/198/21 96/199/21 91/200/21
f 55/201/10 46/202/10 36/203/10 42/204/10 61/205/10
f 48/206/12 59/207/12 18/208/12 14/209/12 34/210/12
f 53/211/15 63/212/15 21/213/15 30/214/15 50/215/15
f 65/216/18 66/217/18 40/218/18 23/219/18 28/220/18
f 46/221/22 48/206/22 34/210/22 36/203/22
f 40/218/23 66/222/23 61/223/23 42/224/23
f 59/225/25 50/215/25 30/226/25 18/208/25
f 21/213/26 63/227/26 65/216/26 28/220/26
f 4/228/22 2/229/22 196/230/22 190/231/22
f 195/232/26 8/233/26 10/234/26 189/235/26
f 8/233/23 2/236/23 4/237/23 10/234/23
f 196/238/24 2/239/24 8/233/24 195/240/24
f 189/241/21 10/234/21 4/242/21 190/243/21
f 16/228/22 13/229/22 207/230/22 208/231/22
f 201/232/26 20/233/26 22/234/26 205/235/26
f 20/233/23 13/236/23 16/237/23 22/234/23
f 207/238/24 13/239/24 20/233/24 201/240/24
f 205/241/21 22/234/21 16/242/21 208/243/21
f 27/228/22 25/229/22 194/230/22 188/231/22
f 31/233/26 33/234/26 186/235/26 192/232/26
f 31/233/23 25/236/23 27/237/23 33/234/23
f 194/238/24 25/239/24 31/233/24 192/240/24
f 186/241/21 33/234/21 27/242/21 188/243/21
f 39/228/22 37/229/22 200/230/22 206/231/22
f 43/233/26 45/234/26 203/235/26 198/232/26
f 43/233/23 37/236/23 39/237/23 45/234/23
f 200/238/24 37/239/24 43/233/24 198/240/24
f 203/241/21 45/234/21 39/242/21 206/243/21
f 52/228/22 49/229/22 193/230/22 187/231/22
f 56/233/26 58/234/26 185/235/26 191/232/26
f 56/233/23 49/236/23 52/237/23 58/234/23
f 193/238/24 49/239/24 56/233/24 191/240/24
f 185/241/21 58/234/21 52/242/21 187/243/21
f 64/228/22 62/229/22 199/230/22 204/231/22
f 68/233/26 69/234/26 202/235/26 197/232/26
f 68/233/23 62/236/23 64/237/23 69/234/23
f 199/238/24 62/239/24 68/233/24 197/240/24
f 202/241/21 69/234/21 64/242/21 204/243/21
f 209/244/26 75/228/26 73/229/26 216/245/26
f 80/233/22 81/234/22 210/246/22 215/247/22
f 80/233/25 73/236/25 75/237/25 81/234/25
f 216/248/24 73/239/24 80/233/24 215/249/24
f 81/234/21 75/242/21 209/250/21 210/251/21
f 226/244/26 88/228/26 85/229/26 221/245/26
f 222/247/22 92/233/22 93/234/22 228/246/22
f 92/233/25 85/236/25 88/237/25 93/234/25
f 221/248/24 85/239/24 92/233/24 222/249/24
f 93/234/21 88/242/21 226/250/21 228/251/21
f 212/231/26 98/228/26 97/229/26 218/230/26
f 217/232/22 99/233/22 100/234/22 211/235/22
f 99/233/25 97/236/25 98/237/25 100/234/25
f 218/238/24 97/239/24 99/233/24 217/240/24
f 100/234/21 98/242/21 212/243/21 211/241/21
f 227/231/26 102/228/26 101/229/26 223/230/26
f 103/233/22 104/234/22 232/235/22 224/232/22
f 103/233/25 101/236/25 102/237/25 104/234/25
f 223/238/24 101/239/24 103/233/24 224/240/24
f 104/234/21 102/242/21 227/243/21 232/241/21
f 213/252/26 106/228/26 105/229/26 220/253/26
f 219/254/22 107/233/22 108/234/22 214/255/22
f 107/233/25 105/236/25 106/237/25 108/234/25
f 220/256/24 105/239/24 107/233/24 219/254/24
f 108/234/21 106/242/21 213/257/21 214/255/21
f 229/252/26 110/228/26 109/229/26 225/253/26
f 230/254/22 111/233/22 112/234/22 231/255/22
f 111/233/25 109/236/25 110/237/25 112/234/25
f 225/256/24 109/239/24 111/233/24 230/254/24
f 112/234/21 110/242/21 229/257/21 231/255/21
f 114/228/25 113/229/25 167/258/25 161/259/25
f 115/233/23 116/234/23 163/260/23 168/261/23
f 115/233/22 113/236/22 114/237/22 116/234/22
f 113/239/24 115/233/24 168/262/24 167/263/24
f 116/234/21 114/242/21 161/264/21 163/265/21
f 118/228/25 117/229/25 173/258/25 178/259/25
f 119/233/23 120/234/23 180/260/23 174/261/23
f 119/233/22 117/236/22 118/237/22 120/234/22
f 117/239/24 119/233/24 174/262/24 173/263/24
f 120/234/21 118/242/21 178/264/21 180/265/21
f 122/228/25 121/229/25 169/266/25 162/267/25
f 170/268/23 123/233/23 124/234/23 165/269/23
f 123/233/22 121/236/22 122/237/22 124/234/22
f 121/239/24 123/233/24 170/240/24 169/238/24
f 124/234/21 122/242/21 162/243/21 165/241/21
f 126/228/25 125/229/25 175/266/25 179/267/25
f 176/268/23 127/233/23 128/234/23 184/269/23
f 127/233/22 125/236/22 126/237/22 128/234/22
f 125/239/24 127/233/24 176/240/24 175/238/24
f 128/234/21 126/242/21 179/243/21 184/241/21
f 130/228/25 129/229/25 171/253/25 164/252/25
f 172/254/23 131/233/23 132/234/23 166/255/23
f 131/233/22 129/236/22 130/237/22 132/234/22
f 129/239/24 131/233/24 172/254/24 171/256/24
f 132/234/21 130/242/21 164/257/21 166/255/21
f 134/228/25 133/229/25 177/253/25 181/252/25
f 135/233/23 136/234/23 183/255/23 182/254/23
f 135/233/22 133/236/22 134/237/22 136/234/22
f 133/239/24 135/233/24 182/254/24 177/256/24
f 136/234/21 134/242/21 181/257/21 183/255/21
f 238/252/23 138/228/23 137/229/23 244/253/23
f 139/233/25 140/234/25 237/270/25 243/271/25
f 139/233/26 137/236/26 138/237/26 140/234/26
f 244/256/24 137/239/24 139/233/24 243/271/24
f 237/270/21 140/234/21 138/242/21 238/257/21
f 256/252/23 142/228/23 141/229/23 255/253/23
f 143/233/25 144/234/25 253/270/25 249/271/25
f 143/233/26 141/236/26 142/237/26 144/234/26
f 255/256/24 141/239/24 143/233/24 249/271/24
f 253/270/21 144/234/21 142/242/21 256/257/21
f 236/231/23 146/228/23 145/229/23 242/230/23
f 240/232/25 147/233/25 148/234/25 234/235/25
f 147/233/26 145/236/26 146/237/26 148/234/26
f 242/238/24 145/239/24 147/233/24 240/240/24
f 234/241/21 148/234/21 146/242/21 236/243/21
f 254/231/23 150/228/23 149/229/23 248/230/23
f 246/232/25 151/233/25 152/234/25 251/235/25
f 151/233/26 149/236/26 150/237/26 152/234/26
f 248/238/24 149/239/24 151/233/24 246/240/24
f 251/241/21 152/234/21 150/242/21 254/243/21
f 235/272/23 154/228/23 153/229/23 241/273/23
f 239/261/25 155/233/25 156/234/25 233/260/25
f 155/233/26 153/236/26 154/237/26 156/234/26
f 241/274/24 153/239/24 155/233/24 239/262/24
f 233/265/21 156/234/21 154/242/21 235/275/21
f 252/272/23 158/228/23 157/229/23 247/273/23
f 245/261/25 159/233/25 160/234/25 250/260/25
f 159/233/26 157/236/26 158/237/26 160/234/26
f 247/274/24 157/239/24 159/233/24 245/262/24
f 250/265/21 160/234/21 158/242/21 252/275/21
